<svg height="48" viewBox="0 0 328 101" fill="none" xmlns="http://www.w3.org/2000/svg"> <path d="M9.21773 84.2242C6.91333 81.1731 3.21367 73.8914 2.05926 70.1342C0.267693 64.3042 -0.305799 58.0367 0.148732 51.7305C1.75223 29.4834 16.1498 6.75345 34.9976 1.04357C52.2828 -4.19309 71.5539 10.7129 80.1989 36.0061C81.9197 41.0406 82.9494 46.4097 83.2994 51.7305C83.7224 58.1609 83.1527 64.5207 81.6106 70.1342C80.9231 72.6366 80.0423 74.9906 78.9701 77.1365C64.7256 105.646 28.1998 109.358 9.21773 84.2242Z" fill="#D62727"/> <path d="M9.21758 84.3038C6.91318 81.2671 3.21352 74.0199 2.0591 70.2805C0.26754 64.4781 -0.305952 58.2403 0.14858 51.9639L2.0591 59.0181C3.21352 62.7575 6.91318 70.0047 9.21758 73.0414C28.1996 98.0562 64.7254 94.362 78.97 65.9872C80.0422 63.8515 80.9229 61.5086 81.6104 59.0181L83.2992 51.9639C83.7223 58.3639 83.1526 64.6936 81.6104 70.2805C80.9229 72.771 80.0422 75.1139 78.97 77.2497C64.7254 105.624 28.1996 109.319 9.21758 84.3038Z" fill="#A1131E"/> <path d="M292.19 53.4419V85.0154H308.921C308.921 90.3728 304.969 94.6762 300.051 94.6762H282.529C282.529 94.6762 282.529 94.6323 282.529 94.5884V62.3123C282.529 57.3941 286.877 53.4419 292.19 53.4419Z" fill="#D62727"/> <path d="M267.178 59.1506L275.961 94.4128C271.086 95.5984 266.212 92.9197 265.114 88.4406L264.631 86.5084L264.456 85.5423H255.893L255.673 86.5084L255.234 88.4406C254.136 92.9197 249.262 95.5984 244.387 94.4128L253.126 59.1506C253.697 56.9549 254.883 55.418 256.771 54.3202C257.825 53.7493 258.923 53.4419 260.152 53.4419C261.382 53.4419 262.523 53.7493 263.533 54.3202C265.422 55.418 266.651 56.9549 267.178 59.1506ZM257.429 78.2089H262.919L260.152 64.991L257.429 78.2089Z" fill="#D62727"/> <path d="M222.095 53.6178H245.764C245.764 58.9313 241.811 62.5761 236.893 62.5761H234.302V85.85C234.302 90.7244 229.999 94.6765 224.685 94.6765V62.5761H213.224C213.224 57.2626 217.176 53.6178 222.095 53.6178Z" fill="#D62727"/> <path d="M197.011 62.137C197.011 57.3066 201.314 53.3544 206.584 53.3544V86.0696C206.584 90.9001 202.324 94.8523 197.011 94.8523V62.137Z" fill="#D62727"/> <path d="M160.602 89.2751C160.119 88.1773 159.856 87.0356 159.856 85.7621V62.3125C159.856 62.2686 159.856 62.2247 159.856 62.2247C159.856 57.0429 163.018 53.6616 167.628 53.3982H185.281V55.7256C185.281 60.029 182.295 63.2786 177.641 63.2786V62.2247H171.668C170.439 62.3564 169.297 63.3225 169.121 64.596C169.078 64.6838 169.078 64.8156 169.078 64.9912V67.8016C169.078 67.9334 169.078 68.109 169.121 68.2408V83.6103C169.297 84.9716 170.175 85.8938 171.581 85.8938H180.934V79.6582C180.934 79.3947 180.978 79.0873 180.978 78.8238C177.289 78.1651 174.962 75.4864 174.962 71.139H183.569C190.288 71.139 189.278 77.726 189.278 80.4047L189.234 86.6843C189.234 90.8999 186.072 94.0177 182.427 94.6764H168.726C166.706 94.5008 164.906 93.7982 163.413 92.7003C162.227 91.7782 161.217 90.5925 160.602 89.2751Z" fill="#D62727"/> <path d="M141.785 62.137C141.785 57.3066 146.089 53.3544 151.358 53.3544V86.0696C151.358 90.9001 147.099 94.8523 141.785 94.8523V62.137Z" fill="#D62727"/> <path d="M118.871 52.9151C127.522 52.9151 134.065 58.492 134.065 68.109V80.9755C134.065 88.5725 127.522 94.9838 118.871 94.9838H104.117H104.073V61.9612C104.073 57.3064 107.322 53.442 112.197 52.959V52.9151H113.163C113.207 52.9151 113.207 52.9151 113.207 52.9151H118.871ZM125.151 79.5264V68.3725C125.151 64.9033 122.341 61.8294 118.871 61.8294H113.207V85.8938C113.207 85.9377 113.207 86.0255 113.207 86.0694H118.871C122.341 86.0694 125.151 82.9955 125.151 79.5264Z" fill="#D62727"/> <path d="M298.414 40.9706C297.931 39.8728 297.668 38.731 297.668 37.4575V14.008C297.668 13.9641 297.668 13.9202 297.668 13.9202C297.668 8.73841 300.829 5.35711 305.44 5.09363H323.093V7.42102C323.093 11.7245 320.107 14.9741 315.452 14.9741V13.9202H309.48C308.251 14.0519 307.109 15.018 306.933 16.2915C306.889 16.3793 306.889 16.511 306.889 16.6867V19.4971C306.889 19.6288 306.889 19.8045 306.933 19.9362V35.3058C307.109 36.6671 307.987 37.5893 309.392 37.5893H318.746V31.3536C318.746 31.0902 318.79 30.7828 318.79 30.5193C315.101 29.8606 312.774 27.1819 312.774 22.8345H321.381C328.099 22.8345 327.089 29.4215 327.089 32.1002L327.045 38.3797C327.045 42.5954 323.884 45.7132 320.239 46.3719H306.538C304.518 46.1962 302.718 45.4936 301.225 44.3958C300.039 43.4736 299.029 42.288 298.414 40.9706Z" fill="#D62727"/> <path d="M260.059 40.9706C259.576 39.8728 259.312 38.731 259.312 37.4575V14.008C259.312 13.9641 259.312 13.9202 259.312 13.9202C259.312 8.73841 262.474 5.35711 267.085 5.09363H284.738V7.42102C284.738 11.7245 281.752 14.9741 277.097 14.9741V13.9202H271.125C269.895 14.0519 268.754 15.018 268.578 16.2915C268.534 16.3793 268.534 16.511 268.534 16.6867V19.4971C268.534 19.6288 268.534 19.8045 268.578 19.9362V35.3058C268.754 36.6671 269.632 37.5893 271.037 37.5893H280.391V31.3536C280.391 31.0902 280.434 30.7828 280.434 30.5193C276.746 29.8606 274.418 27.1819 274.418 22.8345H283.025C289.744 22.8345 288.734 29.4215 288.734 32.1002L288.69 38.3797C288.69 42.5954 285.528 45.7132 281.884 46.3719H268.183C266.163 46.1962 264.362 45.4936 262.869 44.3958C261.684 43.4736 260.674 42.288 260.059 40.9706Z" fill="#D62727"/> <path d="M234.936 30.0803V36.6233H250.569C250.569 42.0246 246.397 46.372 241.04 46.372H234.672C229.491 46.372 225.363 42.2442 225.363 37.0624V14.5351C225.363 9.26549 229.622 5.00592 234.848 5.00592H252.677C252.677 10.4072 249.12 14.7546 243.762 14.7546H234.936V21.0342H246.573L244.421 30.0803H234.936Z" fill="#D62727"/> <path d="M189.449 4.61078C198.1 4.61078 204.643 10.1877 204.643 19.8047V32.6712C204.643 40.2682 198.1 46.6795 189.449 46.6795H174.695H174.651V13.6569C174.651 9.00208 177.9 5.13773 182.775 4.65469V4.61078H183.741C183.785 4.61078 183.785 4.61078 183.785 4.61078H189.449ZM195.729 31.2221V20.0682C195.729 16.599 192.919 13.5251 189.449 13.5251H183.785V37.5895C183.785 37.6334 183.785 37.7212 183.785 37.7651H189.449C192.919 37.7651 195.729 34.6912 195.729 31.2221Z" fill="#D62727"/> <path d="M150.703 30.0803V36.6233H166.336C166.336 42.0246 162.164 46.372 156.807 46.372H150.44C145.258 46.372 141.13 42.2442 141.13 37.0624V14.5351C141.13 9.26549 145.39 5.00592 150.615 5.00592H168.444C168.444 10.4072 164.887 14.7546 159.53 14.7546H150.703V21.0342H162.34L160.188 30.0803H150.703Z" fill="#D62727"/> <path d="M126.951 32.5833L135.163 44.835C131.035 47.6016 126.073 46.6355 123.306 42.5076L117.861 34.3837H113.733V34.735C113.733 41.1903 109.21 46.372 103.677 46.372V13.9202C103.677 8.65068 108.639 4.39111 113.162 4.39111H119.222C121.462 4.39111 123.57 4.74242 125.414 5.40111C127.259 6.05981 128.883 6.98198 130.157 8.25546C131.474 9.52894 132.484 11.0659 133.187 12.9102C133.889 14.7546 134.241 16.8185 134.241 19.1459V19.2776C134.241 21.7368 133.889 23.9324 133.099 25.8207C132.309 27.7089 131.255 29.2898 129.849 30.5633C129.015 31.3537 128.049 32.0124 126.951 32.5833ZM113.733 14.0959V25.2937H118.476C120.276 25.2937 121.682 24.7668 122.692 23.8007C123.702 22.7907 124.229 21.4733 124.229 19.8046V19.6729C124.229 17.8724 123.702 16.4672 122.692 15.545C121.682 14.5789 120.276 14.0959 118.432 14.0959H113.733Z" fill="#D62727"/> </svg>